# xmcd CD database file
#
# Track frame offsets:
#	150
#	33286
#	57964
#	89631
#	117554
#	149525
#	172209
#	197232
#
# Disc length: 3016 seconds
#
# Revision: 0
# Processed by: cddbd v1.5PL3 Copyright (c) Steve Scherf et al.
# Submitted via: CDex 1.51
#
DISCID=7c0bc608
DTITLE=John St. John - Thunderstorm
DYEAR=1995
DGENRE=New Age
TTITLE0=The Gathering Storm
TTITLE1=Distant Thunder
TTITLE2=The Storm
TTITLE3=Raindrops
TTITLE4=Rhythm Of The Rain
TTITLE5=Dark Clouds
TTITLE6=Clearing Skies
TTITLE7=The Rainbow
EXTD=YEAR: 1995
EXTT0=
EXTT1=
EXTT2=
EXTT3=
EXTT4=
EXTT5=
EXTT6=
EXTT7=
PLAYORDER=
